<?xml version="1.0" standalone="no"?>
<!DOCTYPE svg PUBLIC "-//W3C//DTD SVG 20010904//EN"
 "http://www.w3.org/TR/2001/REC-SVG-20010904/DTD/svg10.dtd">
<svg version="1.0" xmlns="http://www.w3.org/2000/svg"
 width="225.000000pt" height="225.000000pt" viewBox="0 0 225.000000 225.000000"
 preserveAspectRatio="xMidYMid meet">

<g transform="translate(0.000000,225.000000) scale(0.100000,-0.100000)"
fill="#000000" stroke="none">
<path d="M435 1387 c-81 -31 -147 -99 -173 -176 -19 -54 -14 -150 9 -201 32
-71 131 -160 179 -160 10 0 14 188 4 225 -4 17 -12 20 -50 17 l-44 -4 0 65 c0
36 4 76 9 89 5 13 36 40 71 61 l63 37 32 -20 c41 -25 50 -25 86 1 29 20 31 20
72 4 l42 -17 -20 23 c-36 40 -113 69 -185 68 -36 0 -79 -6 -95 -12z"/>
<path d="M992 1294 c-40 -20 -62 -60 -62 -110 0 -28 8 -44 34 -70 29 -29 41
-34 79 -34 57 0 99 29 78 54 -12 14 -15 14 -34 1 -12 -8 -31 -15 -43 -15 -27
0 -64 44 -64 76 0 50 62 80 112 53 16 -8 24 -8 34 3 13 12 12 17 -5 32 -28 25
-89 30 -129 10z"/>
<path d="M1403 1290 c-39 -24 -54 -50 -55 -99 -1 -70 45 -111 123 -111 56 0
109 51 109 104 0 52 -25 95 -65 112 -46 19 -74 18 -112 -6z m102 -45 c46 -45
21 -125 -40 -125 -62 0 -89 90 -39 129 34 27 50 26 79 -4z"/>
<path d="M1180 1190 l0 -110 75 0 c68 0 75 2 75 20 0 17 -7 20 -50 20 l-50 0
0 90 c0 89 0 90 -25 90 l-25 0 0 -110z"/>
<path d="M1600 1280 c0 -16 7 -20 33 -20 l32 0 -3 -90 -4 -90 26 0 26 0 0 90
0 90 35 0 c28 0 35 4 35 20 0 19 -7 20 -90 20 -83 0 -90 -1 -90 -20z"/>
<path d="M1820 1190 l0 -110 25 0 c15 0 25 5 24 13 -1 6 -1 27 0 45 1 33 2 33
44 30 42 -3 42 -3 45 -46 3 -38 6 -43 25 -40 21 3 22 9 25 111 l3 107 -26 0
c-23 0 -25 -4 -25 -45 l0 -45 -45 0 -45 0 0 45 c0 41 -2 45 -25 45 l-25 0 0
-110z"/>
<path d="M721 1103 c-1 -20 4 -33 12 -33 9 0 9 -2 -1 -9 -17 -10 -6 -81 12
-78 6 1 10 -4 8 -11 -1 -8 2 -11 7 -7 6 3 7 13 4 22 -4 11 -2 14 5 9 12 -7 29
37 24 62 -2 6 2 12 8 12 5 0 10 7 10 15 0 11 -11 15 -39 15 -29 0 -41 5 -44
18 -3 9 -5 2 -6 -15z m65 -55 c5 -7 3 -8 -6 -3 -9 6 -10 1 -6 -16 7 -23 7 -23
-8 -5 -9 11 -16 23 -16 28 0 12 28 10 36 -4z m-38 -29 c-3 -8 -7 -3 -11 10 -4
17 -3 21 5 13 5 -5 8 -16 6 -23z"/>
<path d="M1233 1023 c-20 -7 -15 -31 7 -43 28 -15 26 -33 -2 -25 -18 6 -20 4
-12 -5 16 -16 48 -9 52 13 2 11 -6 21 -25 28 l-28 12 25 6 c18 5 21 9 10 12
-8 4 -21 4 -27 2z"/>
<path d="M1515 1016 c-21 -15 -17 -55 8 -70 25 -16 52 4 52 39 0 33 -33 51
-60 31z m52 -22 c3 -8 -2 -23 -11 -32 -15 -15 -17 -15 -32 0 -21 21 -11 48 16
48 11 0 23 -7 27 -16z"/>
<path d="M1350 980 c0 -22 5 -40 10 -40 6 0 10 9 10 20 0 27 28 25 40 -2 7
-19 9 -14 8 22 0 25 -2 37 -5 28 -5 -22 -43 -24 -43 -3 0 8 -4 15 -10 15 -5 0
-10 -18 -10 -40z"/>
<path d="M1661 978 c1 -24 3 -35 6 -26 2 9 14 18 26 20 34 5 29 42 -5 46 -27
3 -28 2 -27 -40z m42 17 c1 -5 -6 -11 -15 -13 -11 -2 -18 3 -18 13 0 17 30 18
33 0z"/>
<path d="M1065 990 c45 -11 105 -11 105 0 0 6 -28 10 -67 9 -53 -1 -61 -3 -38
-9z"/>
<path d="M1760 990 c0 -11 60 -11 105 0 23 6 15 8 -37 9 -40 1 -68 -3 -68 -9z"/>
<path d="M732 950 c0 -14 2 -19 5 -12 2 6 2 18 0 25 -3 6 -5 1 -5 -13z"/>
</g>
</svg>
